<svg width="352" height="36" viewBox="0 0 352 36" fill="none" xmlns="http://www.w3.org/2000/svg">
<path d="M32.9375 36C32.9375 33.6667 32.5417 31.4062 31.75 29.2188C30.9792 27.0104 29.9271 24.9375 28.5938 23C27.2812 21.0417 25.75 19.2188 24 17.5312C22.2708 15.8438 20.4479 14.3438 18.5312 13.0312C16.6146 11.6979 14.6562 10.5833 12.6562 9.6875C10.6771 8.77083 8.79167 8.09375 7 7.65625V36H0.59375V0.8125H4.0625V0.875C6.35417 1 8.79167 1.51042 11.375 2.40625C13.9792 3.28125 16.5625 4.47917 19.125 6C21.7083 7.5 24.1875 9.29167 26.5625 11.375C28.9583 13.4375 31.0833 15.7188 32.9375 18.2188V0.8125H39.3125V36H32.9375ZM90.6712 18.3438C90.6712 20.7812 90.2858 23.0729 89.515 25.2188C88.7442 27.3438 87.64 29.2083 86.2025 30.8125C84.7858 32.4167 83.0775 33.6875 81.0775 34.625C79.0983 35.5417 76.89 36 74.4525 36H63.3275C60.89 36 58.6712 35.5417 56.6712 34.625C54.6712 33.6875 52.9525 32.4167 51.515 30.8125C50.0983 29.2083 49.0046 27.3438 48.2337 25.2188C47.4629 23.0729 47.0775 20.7812 47.0775 18.3438C47.0775 15.9271 47.4629 13.6562 48.2337 11.5312C49.0046 9.40625 50.0983 7.55208 51.515 5.96875C52.9525 4.36458 54.6712 3.10417 56.6712 2.1875C58.6712 1.27083 60.89 0.8125 63.3275 0.8125H74.4525C76.89 0.8125 79.0983 1.27083 81.0775 2.1875C83.0775 3.10417 84.7858 4.36458 86.2025 5.96875C87.64 7.55208 88.7442 9.40625 89.515 11.5312C90.2858 13.6562 90.6712 15.9271 90.6712 18.3438ZM84.265 18.3438C84.265 16.8021 84.0358 15.3542 83.5775 14C83.14 12.625 82.4942 11.4375 81.64 10.4375C80.8067 9.41667 79.7858 8.61458 78.5775 8.03125C77.3692 7.42708 75.9942 7.125 74.4525 7.125H63.3275C61.7858 7.125 60.4004 7.42708 59.1712 8.03125C57.9629 8.61458 56.9317 9.41667 56.0775 10.4375C55.2442 11.4375 54.5983 12.625 54.14 14C53.7025 15.3542 53.4837 16.8021 53.4837 18.3438C53.4837 19.8854 53.7025 21.3438 54.14 22.7188C54.5983 24.0729 55.2442 25.2604 56.0775 26.2812C56.9317 27.3021 57.9629 28.1146 59.1712 28.7188C60.4004 29.3021 61.7858 29.5938 63.3275 29.5938H74.4525C75.9942 29.5938 77.3692 29.3021 78.5775 28.7188C79.7858 28.1146 80.8067 27.3021 81.64 26.2812C82.4942 25.2604 83.14 24.0729 83.5775 22.7188C84.0358 21.3438 84.265 19.8854 84.265 18.3438ZM124.186 36H117.78V18.2812C117.78 16.7396 117.488 15.2917 116.905 13.9375C116.322 12.5833 115.52 11.4062 114.499 10.4062C113.499 9.38542 112.311 8.58333 110.936 8C109.582 7.41667 108.134 7.125 106.592 7.125H104.78V36H98.3737V0.8125H106.592C108.092 0.8125 109.54 1 110.936 1.375C112.332 1.72917 113.645 2.23958 114.874 2.90625C116.124 3.55208 117.27 4.34375 118.311 5.28125C119.374 6.21875 120.301 7.26042 121.092 8.40625C121.905 7.26042 122.822 6.21875 123.842 5.28125C124.884 4.34375 126.009 3.55208 127.217 2.90625C128.426 2.23958 129.707 1.72917 131.061 1.375C132.415 1 133.832 0.8125 135.311 0.8125H143.499V36H137.092V7.125H135.311C133.77 7.125 132.322 7.4375 130.967 8.0625C129.634 8.6875 128.457 9.54167 127.436 10.625C126.436 11.7083 125.645 12.9792 125.061 14.4375C124.478 15.8958 124.186 17.4479 124.186 19.0938V36ZM193.67 36H187.264V26.3438H162.607V19.8125H187.264V7.125H170.607C169.045 7.125 167.576 7.42708 166.201 8.03125C164.826 8.61458 163.628 9.41667 162.607 10.4375C161.587 11.4583 160.774 12.6562 160.17 14.0312C159.587 15.3854 159.295 16.8438 159.295 18.4062V36H152.826V18.4062C152.826 15.9479 153.295 13.6458 154.232 11.5C155.17 9.35417 156.441 7.47917 158.045 5.875C159.649 4.27083 161.535 3.01042 163.701 2.09375C165.868 1.15625 168.17 0.6875 170.607 0.6875H193.67V36ZM245.279 18.2812C245.279 20.7604 244.883 23.0833 244.091 25.25C243.3 27.3958 242.185 29.2708 240.747 30.875C239.31 32.4583 237.57 33.7083 235.529 34.625C233.508 35.5417 231.268 36 228.81 36H213.091V29.5312H228.81C230.372 29.5312 231.768 29.2396 232.997 28.6562C234.227 28.0729 235.268 27.2812 236.122 26.2812C236.997 25.2604 237.664 24.0729 238.122 22.7188C238.581 21.3438 238.81 19.8646 238.81 18.2812C238.81 16.7188 238.581 15.2604 238.122 13.9062C237.664 12.5521 236.997 11.375 236.122 10.375C235.268 9.375 234.227 8.58333 232.997 8C231.768 7.41667 230.372 7.125 228.81 7.125H210.06V36H203.529V0.6875H228.81C231.268 0.6875 233.508 1.14583 235.529 2.0625C237.57 2.97917 239.31 4.22917 240.747 5.8125C242.185 7.39583 243.3 9.26042 244.091 11.4062C244.883 13.5312 245.279 15.8229 245.279 18.2812Z" fill="white"/>
<path d="M259.387 36H253.044V0.8125H259.387V36ZM306.059 7.125H275.715V36H269.246V0.6875H306.059V7.125ZM301.902 21.4062H278.746V14.9375H301.902V21.4062ZM351.636 25.625C351.636 27.0625 351.293 28.4167 350.605 29.6875C349.938 30.9375 349.022 32.0312 347.855 32.9688C346.709 33.9062 345.355 34.6458 343.793 35.1875C342.23 35.7292 340.574 36 338.824 36H311.293V29.5938H338.824C339.699 29.5938 340.522 29.5 341.293 29.3125C342.084 29.1042 342.772 28.8229 343.355 28.4688C343.938 28.0938 344.397 27.6667 344.73 27.1875C345.063 26.7083 345.23 26.1875 345.23 25.625V24.0312H324.043C322.293 24.0312 320.636 23.6979 319.074 23.0312C317.532 22.3438 316.178 21.4271 315.011 20.2812C313.865 19.1146 312.959 17.7604 312.293 16.2188C311.626 14.6562 311.293 12.9896 311.293 11.2188V0.8125H317.636V11.2188C317.636 12.1146 317.803 12.9583 318.136 13.75C318.47 14.5208 318.928 15.1979 319.511 15.7812C320.095 16.3438 320.772 16.7917 321.543 17.125C322.334 17.4583 323.168 17.625 324.043 17.625H345.23V0.8125H351.636V25.625Z" fill="#F13E51"/>
</svg>
