<svg class="animated" id="freepik_stories-flying-around-the-world" xmlns="http://www.w3.org/2000/svg" viewBox="0 0 500 500" version="1.1" xmlns:xlink="http://www.w3.org/1999/xlink" xmlns:svgjs="http://svgjs.com/svgjs"><style>svg#freepik_stories-flying-around-the-world:not(.animated) .animable {opacity: 0;}svg#freepik_stories-flying-around-the-world.animated #freepik--background-complete--inject-293 {animation: 3s Infinite  linear floating;animation-delay: 0s;}svg#freepik_stories-flying-around-the-world.animated #freepik--Birds--inject-293 {animation: 3s Infinite  linear floating;animation-delay: 0s;}            @keyframes floating {                0% {                    opacity: 1;                    transform: translateY(0px);                }                50% {                    transform: translateY(-10px);                }                100% {                    opacity: 1;                    transform: translateY(0px);                }            }        </style><g id="freepik--background-complete--inject-293" class="animable" style="transform-origin: 255.774px 256.341px;"><path d="M90.61,118.23c.47-3.44-4.37-6.26-8-6.56-1.73-.14-3.54.13-5.18-.44-3.57-1.25-5-5.85-8.47-7.32-2.6-1.09-5.59-.12-8.11,1.15s-5,2.87-7.83,3c-2.45.15-5.11-.76-7.26.44-1.59.89-2.43,2.73-3.9,3.82a9.28,9.28,0,0,1-5.11,1.38,14.49,14.49,0,0,0-5.26.86c-1.63.75-3,2.47-2.64,4.23Z" style="fill: rgb(235, 235, 235); transform-origin: 59.7169px 111.114px;" id="el9lamky756p8" class="animable"></path><path d="M482.73,314.21c.37-2.69-3.44-4.91-6.3-5.14a16.2,16.2,0,0,1-4.07-.35c-2.8-1-3.91-4.59-6.64-5.75-2.05-.86-4.4-.09-6.37.9s-3.94,2.25-6.15,2.4c-1.92.12-4-.59-5.69.35-1.26.7-1.91,2.14-3.07,3a7.31,7.31,0,0,1-4,1.09,11.48,11.48,0,0,0-4.13.67,3.28,3.28,0,0,0-2.07,3.32Z" style="fill: rgb(235, 235, 235); transform-origin: 458.492px 308.649px;" id="elr046pouvma" class="animable"></path><path d="M471.29,112.75c.37-2.7-3.43-4.92-6.29-5.15a16.16,16.16,0,0,1-4.07-.35c-2.8-1-3.92-4.59-6.65-5.74-2-.86-4.39-.09-6.37.9s-3.93,2.25-6.14,2.39c-1.93.13-4-.59-5.7.35-1.25.7-1.91,2.15-3.07,3a7.36,7.36,0,0,1-4,1.09,11.28,11.28,0,0,0-4.14.67,3.27,3.27,0,0,0-2.06,3.32Z" style="fill: rgb(235, 235, 235); transform-origin: 447.052px 107.184px;" id="el94zeq5bei6e" class="animable"></path><path d="M447.88,439.31c.39-2.83-3.6-5.15-6.59-5.39-1.43-.12-2.92.1-4.27-.37-2.93-1-4.11-4.81-7-6-2.14-.9-4.6-.1-6.68.94s-4.12,2.36-6.44,2.51c-2,.13-4.2-.62-6,.37-1.31.73-2,2.25-3.21,3.14a7.72,7.72,0,0,1-4.21,1.14,11.69,11.69,0,0,0-4.33.71,3.42,3.42,0,0,0-2.17,3.47Z" style="fill: rgb(235, 235, 235); transform-origin: 422.437px 433.495px;" id="elov0rzogscek" class="animable"></path><path d="M79.72,402.43c.39-2.83-3.6-5.15-6.59-5.39-1.43-.12-2.92.1-4.27-.37-2.94-1-4.11-4.81-7-6-2.14-.9-4.6-.1-6.68.94s-4.12,2.36-6.44,2.51c-2,.13-4.21-.62-6,.37-1.32.73-2,2.24-3.22,3.14a7.69,7.69,0,0,1-4.2,1.14,11.69,11.69,0,0,0-4.33.71,3.41,3.41,0,0,0-2.17,3.47Z" style="fill: rgb(235, 235, 235); transform-origin: 54.2772px 396.615px;" id="elpp5wzscsgdh" class="animable"></path><path d="M158.06,73.65c.88-6.4-8.16-11.67-15-12.22-3.24-.26-6.6.23-9.67-.84-6.65-2.31-9.31-10.91-15.8-13.64-4.85-2.05-10.43-.23-15.14,2.14s-9.35,5.35-14.6,5.68c-4.57.29-9.53-1.4-13.53.83-3,1.67-4.54,5.1-7.29,7.12s-6.19,2.41-9.53,2.59-6.78.21-9.82,1.6-5.54,4.6-4.91,7.88Z" style="fill: rgb(235, 235, 235); transform-origin: 100.396px 60.425px;" id="eljtbnzsmjjpp" class="animable"></path><path d="M414.76,473.88c.93-6.73-8.56-12.26-15.69-12.84-3.41-.27-6.94.25-10.16-.87-7-2.44-9.77-11.46-16.58-14.33-5.1-2.15-11-.24-15.9,2.25s-9.81,5.61-15.33,6c-4.8.31-10-1.47-14.21.88-3.12,1.74-4.76,5.35-7.65,7.47s-6.5,2.52-10,2.71-7.12.23-10.31,1.69-5.82,4.83-5.16,8.27Z" style="fill: rgb(235, 235, 235); transform-origin: 354.246px 460.009px;" id="eldtyi5csv4rc" class="animable"></path><path d="M458,59.52c.7-5.09-6.49-9.29-11.89-9.72-2.58-.21-5.26.18-7.7-.67-5.29-1.84-7.4-8.67-12.56-10.85-3.86-1.63-8.3-.18-12,1.7s-7.44,4.26-11.62,4.52c-3.63.24-7.58-1.11-10.76.66-2.37,1.33-3.61,4.06-5.8,5.67s-4.92,1.91-7.57,2.05-5.4.17-7.81,1.28-4.41,3.66-3.91,6.27Z" style="fill: rgb(235, 235, 235); transform-origin: 412.175px 49.0015px;" id="el8qzlzp1m956" class="animable"></path></g><g id="freepik--Earth--inject-293" class="animable" style="transform-origin: 252.37px 262.098px;"><path d="M411.68,269.34c-1.73-3.91-2.12-8.23-3.26-12.33-.61-2.2-1.65-4.54-3.71-5.52-1.37-.64-3-.56-4.43-1-5.22-1.57-6.64-8.84-11.58-11.1a16.82,16.82,0,0,0-5-1c-6.61-.78-13.45-3.06-17.6-8.25-1.37-1.67-2.4-3.65-4.07-5s-4.33-2-6-.56c1.39,2.79,2.76,5.58,4.13,8.34,1.25,2.51,2.53,5.1,4.63,6.94s5.24,2.85,7.78,1.68a5.12,5.12,0,0,1,2.62-.92,2.82,2.82,0,0,1,1.7,1.09c3.6,4,2.43,10.59-1.09,14.67s-8.67,6.16-13.66,8.14c-1.79.7-3.68,1.42-5.58,1.09-3.46-.65-5.3-4.41-6.3-7.78-2.26-7.48-3.35-15.6-8-21.9-1.48-2-3.32-3.79-4.21-6.11-.95-2.51-.73-5.43-2.23-7.64s-4.88-3.65-5.11-6.44c-.14-2,1.48-3.68,3.27-4.52s3.79-1.11,5.63-1.87c.73-.3,1.53-.83,1.56-1.61,0-1.17-1.62-1.65-2-2.74s.81-2.37,1.33-3.57c1.15-2.73-1.7-5.49-4.46-6.61s-6.05-1.92-7.33-4.6a15.63,15.63,0,0,1-.89-4c-.65-3.37-3.13-6.63-6.53-7.19s-7.22,2.48-6.67,5.88c.34,1.87,1.73,3.32,2.49,5s.55,4.3-1.23,4.85c-2.93.9-5.75-4.46-8.2-2.62,1,3.43,2,6.86,3,10.32-3.84,1.95-8.45-1.59-10.09-5.6s-1.7-8.57-3.66-12.42-7.22-6.74-10.57-4c-.16,5,6.39,7,9.29,11,2.09,2.9,1.79,7.61-1.31,9.45s-7.95-1.36-6.78-4.74c.42-1.17,1.4-2.15,1.51-3.4.11-1.56-1.2-2.82-2.4-3.82-1.87-1.59-3.74-3.15-5.6-4.72a12,12,0,0,0-4-2.51c-3.85-1.11-7.7,2-9.74,5.44s-3.17,7.5-6,10.38c-4.05,4.18-11.71,4.43-15.51.05S244,185,249.62,183.39c2.12-.59,4.8-.53,5.91-2.4,2-3.32-3.62-7.56-1.7-10.91,1.48-2.56,5.38-1.39,8.23-2.26s4.4-3.71,6.08-6.16,4.24-4.88,7.14-4.24c-.23-1.7-.45-3.54.3-5.08s2.88-2.56,4.27-1.56c-1.42,2.35.28,5.61,2.76,6.78s5.38.89,8.12.59,6.16-1.34,6.38-4.08c.09-.89-.25-1.84.09-2.67,1.2-3.27,7.22,1.22,9.54-1.4,1.33-1.36-.14-3.79-2-4.24s-3.77.23-5.66.28-4.21-.92-4.3-2.81,2-3.21,2.23-5c.37-3.13-4.93-3.94-6.8-1.4s-1.2,6-.64,9.12.86,6.75-1.43,8.93c-1,1.48-3.51.69-4.35-.87s-.67-3.46-.81-5.21-.92-3.8-2.64-4.27c-1.2-.33-2.49.25-3.71.42-4.86.58-8.23-5.69-6.7-10.32s5.91-7.64,10.18-10c3.13-1.73,7-3.35,10.1-1.59,1.45.81,2.45,2.2,3.87,3,2.46,1.45,5.5.92,8.32,1a19.43,19.43,0,0,1,12.13,4.72c1.25,1.14,2.42,3,1.45,4.4s-4.1,1.76-3.57,3.46a6,6,0,0,0,7.58-4.88,5.08,5.08,0,0,1,2.93,4.13c3.54-3.6,10.35-3.07,13.25,1.09.78,1.08,1.34,2.39,2.45,3.15s3.07.36,3.21-.95a2.61,2.61,0,0,0-.22-1.23c-.67-1.89-1.37-3.76-2-5.63,2.6-1.4,5.66.78,7.42,3.12,6.53,8.73,11.18,3.49,20.39,4.91,6.22.95,8.95,4.94,12.46,9.76,10.77,14.84,25,27,34.78,42.5,1,1.62,2,3.27,2.87,4.94-.16-.42-.3-.84-.47-1.25a172.09,172.09,0,0,0-14.22-28.92c-1.2-2-2.43-3.88-3.69-5.78-.78-1.17-1.59-2.37-2.39-3.51-1-1.51-2.12-3-3.21-4.41-.87-1.17-1.73-2.31-2.62-3.43-.62-.78-1.26-1.56-1.9-2.34s-1.39-1.76-2.18-2.62l-2.34-2.71a8.15,8.15,0,0,0-.75-.83c-.81-1-1.67-1.87-2.54-2.79a.67.67,0,0,0-.25-.28c-.22-.25-.47-.5-.72-.76-.7-.78-1.45-1.53-2.18-2.28-1.2-1.23-2.43-2.46-3.68-3.63-1-1-2.09-2-3.18-3s-1.9-1.73-2.87-2.57-1.9-1.64-2.88-2.45c-1.17-1-2.37-2-3.59-3h0c-3.38-2.7-6.86-5.27-10.43-7.67-.89-.61-1.76-1.2-2.65-1.78s-1.81-1.17-2.71-1.73-1.81-1.14-2.73-1.67-1.84-1.12-2.76-1.65c-.75-.45-1.48-.87-2.23-1.26a11.9,11.9,0,0,0-1.15-.64c-1.58-.89-3.2-1.75-4.82-2.56-.81-.42-1.62-.84-2.45-1.23-1-.53-2.1-1-3.16-1.51a2.92,2.92,0,0,0-.47-.22c-1-.45-1.9-.89-2.87-1.31-1.37-.59-2.74-1.17-4.1-1.73-1.56-.64-3.13-1.28-4.72-1.87-1.75-.67-3.51-1.31-5.29-1.89s-3.6-1.2-5.41-1.76-3.63-1.06-5.47-1.56q-5.44-1.47-11-2.6a1.33,1.33,0,0,1-.19,0c-1.42-.28-2.85-.56-4.27-.78a1.09,1.09,0,0,0-.28-.06c-.61-.11-1.25-.22-1.89-.31-2.65-.44-5.33-.8-8-1.11a9.57,9.57,0,0,0-1-.11c-.78-.11-1.56-.17-2.37-.25-1.79-.17-3.57-.31-5.39-.42s-3.76-.22-5.66-.28-4-.11-5.94-.11c-5.24,0-10.43.22-15.56.69-1.23.09-2.43.2-3.63.34s-2.51.28-3.76.45-2.51.33-3.74.53-2.48.39-3.73.61c-1.06.17-2.15.36-3.21.59-2.62.5-5.22,1.05-7.78,1.67-1.2.28-2.4.58-3.6.92s-2.4.64-3.57,1c-2,.56-3.9,1.18-5.83,1.79h0c-1.56.53-3.15,1.06-4.68,1.59a.22.22,0,0,0-.11,0c-1.59.56-3.13,1.15-4.69,1.76l-.25.09c-1.42.55-2.84,1.14-4.24,1.73-1.76.72-3.49,1.5-5.19,2.28-1.45.67-2.87,1.34-4.26,2s-3,1.5-4.49,2.28l-.17.09c-1.42.75-2.85,1.53-4.24,2.34s-2.87,1.65-4.29,2.54h0c-1.34.81-2.65,1.62-4,2.45-.5.31-1,.64-1.48,1-1.4.89-2.73,1.81-4.1,2.76-1.67,1.14-3.29,2.34-4.91,3.54-1.42,1.06-2.82,2.15-4.18,3.24A174.44,174.44,0,0,0,120.72,145c-2.37,2.63-4.6,5.3-6.78,8-1.84,2.34-3.63,4.71-5.33,7.16q-2.3,3.21-4.43,6.52,2.13-3.31,4.43-6.52c.45-.05.9-.11,1.34-.14,2.51-.19,5.16-.11,7.42-1.19,2.09-1,3.57-2.91,5.47-4.24,4.85-3.46,12.8-4.1,14.11-9.9.44-2-.09-4.08.64-5.94,1.37-3.49,6-4,9.76-3.94,1.59,0,3.46.23,4.18,1.62a4,4,0,0,1-.16,3.24,30.31,30.31,0,0,1-12.8,15.72c-4.86,3-11.19,5.25-12.53,10.77.67,1.87,4.08,1.73,4.35,3.68.2,1.56-1.81,2.37-2.53,3.77-1.06,2,1.36,4.51,3.68,4.4s4.24-1.78,5.94-3.34c5.07-4.72,10.4-9.79,12.24-16.49.78-2.76,1.06-6,3.29-7.83,2.65-2.18,7.39-.67,8.29,2.65,2.2-1.23,5.63-2.15,6.77.14a11.89,11.89,0,0,1,.48,2.62c.72,3.57,5.6,5.18,6.1,8.78.59,4.16-4.74,6.31-8.89,6.95q-5.65.87-11.3,1.78a10.39,10.39,0,0,0-4.68,1.51c-1.34,1-2.18,2.9-1.4,4.38a10.59,10.59,0,0,0,2,2c3.12,3.13.55,9.57-3.85,9.71-1.51.06-3-.5-4.49-.56-4.47-.19-8,3.74-10.13,7.67s-3.71,8.42-7.28,11.1c-5.74,4.32-15.64,3.32-18.43,10-1.12,2.67-.53,5.69-.09,8.56s.65,6-1,8.39-5.94,2.85-7.16.23a6.41,6.41,0,0,1-.17-3.71c.67-4.13,1.31-8.26,2-12.38.47-3.07.89-6.5-.92-9-2.54-3.52-8.23-3.18-11.52-.37s-4.63,7.23-5.55,11.44c-.67,3.12-1.45,7.53-3.18,11.1h0c-.58,3.46-1.06,7-1.42,10.51s-.61,7.23-.75,10.91a16.86,16.86,0,0,0,1.42-1.34c1.76-1.81,5.3-9.48,8.48-5.72a2.85,2.85,0,0,1,0,3.49c-1,1.25-2.92,1.53-3.68,2.9-.92,1.62.37,3.62,1.87,4.68s3.35,1.76,4.41,3.29c2,2.93.08,7.37,2.06,10.35,1.7,2.57,5.33,2.73,8.42,3.07l1.06.17c.87-6.14,3.74-11.13,12.11-13,11.54-2.62,26.72,6.95,33.21,15.65,7.25,9.73,10.68,23.51,21.78,28.39,8,3.48,19.25,2.23,23.12,10,3.46,7-2.56,14.81-3.48,22.54-.59,5.1,1.09,10.17,1.48,15.28s-1.15,11.1-5.8,13.25c-2.6,1.17-5.86,1-8,3-3.71,3.51-.67,10.76-4.38,14.28-1.31,1.23-3.12,1.67-4.71,2.48-8.34,4.21-8.12,16.48-4.24,25,.14.31.28.58.41.89A176.27,176.27,0,0,0,335,417.68h0a175.62,175.62,0,0,0,15.59-9.4,172.89,172.89,0,0,0,21.89-17.4,169.77,169.77,0,0,0,13.39-14c3-3.41,5.75-7,8.42-10.57,1.37-1.87,2.71-3.74,4-5.66a175.42,175.42,0,0,0,28.65-75c.53-4,.94-8,1.22-12a10.1,10.1,0,0,1-7.08,3.15C416.87,276.79,413.38,273.24,411.68,269.34Z" style="fill: rgb(69, 90, 100); transform-origin: 252.3px 262.098px;" id="elmh4mh8pimb" class="animable"></path><path d="M210.27,132c-3.49,2.09-5.35,6-8,9.08s-7.53,5.22-10.7,2.68a7.34,7.34,0,0,1-2.4-5.18,13.34,13.34,0,0,1,1.9-8.08c1.52-2.47,3.84-4.42,5.12-7s1-6.41-1.61-7.63c-1.42-.66-3.22-.4-4.48-1.33-2.27-1.68-.65-5.63,2-6.63s5.57-.23,8.39,0c10.21.65,17.73-6,25.4-11.59,6-4.32,18.7-9.43,25.61-5,2.76,1.76,3.84,6.29,1.24,8.28-1.16.89-2.77,1.09-3.85,2.07-1.3,1.18-1.48,3.13-2.23,4.72-1.93,4.13-7.51,5.63-9.3,9.83-1.08,2.53-.59,5.67-2.26,7.86-1.32,1.73-3.61,2.34-5.73,2.84L216,130A20,20,0,0,0,210.27,132Z" style="fill: rgb(38, 50, 56); transform-origin: 221.621px 117.25px;" id="elhf3x1731y3" class="animable"></path><path d="M329.36,348.9c-4.42,6.66-5.22,15-6.45,22.87s-3.33,16.3-9.4,21.5S296.3,398.16,293,390.9c-1.82-3.94-.89-8.59-1.88-12.82-1.28-5.5-5.66-9.75-7.74-15-1.78-4.48-1.78-9.44-1.93-14.26-.79-26.33-7.21-53.82-25.14-73.12-2.2-2.37-4.7-4.68-7.83-5.52a10,10,0,0,0-10.29,3.55c-1.44,1.91-2.18,4.34-3.94,5.95-3.83,3.5-10.52,1-13.08-3.52s-2.21-10.05-1.78-15.22l1.59-19.23c.28-3.36.66-7,2.86-9.5,3.13-3.62,8.74-3.79,12.57-6.66,5-3.76,5.69-10.93,8.86-16.35s13.07-7.71,14.54-1.61c10.48-22.43,33.64,10.9,47.41,8.39,4-.72,7.91-2.65,11.94-2.08,7.11,1,10.78,8.83,13.2,15.58l12,33.66c1.53,4.28,3.51,9,7.74,10.67,3.25,1.26,7,.3,10.28,1.49,8.65,3.14,5.84,16.74-1.12,22.76s-16.72,9.82-20,18.4c-2.49,6.46-.51,14-3.19,20.43C336.14,341.46,332.1,344.77,329.36,348.9Z" style="fill: rgb(38, 50, 56); transform-origin: 293.427px 298.301px;" id="el986op09pjgr" class="animable"></path><path d="M362.17,356.21c-2.84.4-6.19-1-8.35.88-1.26,1.11-1.54,2.91-2,4.51a9.64,9.64,0,0,1-4,5.5,6.06,6.06,0,0,1-6.57-.12,4.45,4.45,0,0,1-.91-6.15,29.9,29.9,0,0,1,2.46-2c3.77-3.56,1.19-10.17,4.05-14.4,1.69-2.5,4.35-5,6.21-7.57,1.43-1.94,1.95-3.48,4.58-4C369.06,330.59,374.25,354.52,362.17,356.21Z" style="fill: rgb(38, 50, 56); transform-origin: 354.289px 350.359px;" id="elz5nczgral6o" class="animable"></path><path d="M99.16,308.38c-.56-5,1.11-10.09,1.2-15.2,0-3.51-.2-7.22-.25-10.76a48.23,48.23,0,0,1-9-1.26,2.67,2.67,0,0,1-1.64-.83,3.22,3.22,0,0,1-.36-1.87c-.23-4-4.05-6.58-7.48-8.56a28.92,28.92,0,0,0-5.44-2.68c0,.42,0,.81,0,1.23a175.63,175.63,0,0,0,11.21,55.91,169.07,169.07,0,0,0,10.77,23.1c1.73,3.2,3.62,6.35,5.6,9.45,2.46,3.82,5,7.56,7.79,11.16,2.56,3.45,5.29,6.83,8.17,10.06A173.36,173.36,0,0,0,132.26,391q5.82,5.44,12.13,10.32c-9.62-25.82-18.68-52.18-35.14-74.16C104.93,321.38,100,315.52,99.16,308.38Z" style="fill: rgb(38, 50, 56); transform-origin: 110.29px 334.27px;" id="elitkdnzhtf0r" class="animable"></path><path d="M76.21,258.88c0,1.06-.06,2.12-.06,3.18,0,.86,0,1.72,0,2.58,0-.86,0-1.72,0-2.58C76.15,261,76.19,259.94,76.21,258.88Z" style="fill: rgb(38, 50, 56); transform-origin: 76.18px 261.76px;" id="elnxokb96q259" class="animable"></path><g id="elmsknd74ppj"><g style="opacity: 0.6; transform-origin: 158.11px 410.86px;" class="animable"><path d="M154.26,408.42c1.48,1,3,2,4.5,2.93,1.06.67,2.12,1.31,3.2,1.95-1.08-.64-2.14-1.28-3.2-1.95C157.24,410.4,155.74,409.43,154.26,408.42Z" style="fill: rgb(38, 50, 56); transform-origin: 158.11px 410.86px;" id="elte1lxyo58eb" class="animable"></path></g></g><path d="M361.26,298.06c7-6,9.77-19.62,1.12-22.76-3.27-1.19-7-.23-10.28-1.49-4.23-1.64-6.21-6.39-7.74-10.67l-12-33.66c-2.42-6.75-6.09-14.59-13.2-15.58-4-.57-7.94,1.36-11.94,2.08-13.77,2.51-36.93-30.82-47.41-8.39-1.47-6.1-11.38-3.81-14.54,1.61s-3.84,12.59-8.86,16.35c-3.83,2.87-9.44,3-12.57,6.66-2.2,2.55-2.58,6.14-2.86,9.5l-1.59,19.23c-.43,5.17-.78,10.71,1.78,15.22s9.25,7,13.08,3.52c1.76-1.61,2.5-4,3.94-5.95a10,10,0,0,1,10.29-3.55c3.13.84,5.63,3.15,7.83,5.52,17.93,19.3,24.35,46.79,25.14,73.12.15,4.82.15,9.78,1.93,14.26,2.08,5.25,6.46,9.5,7.74,15,1,4.23.06,8.88,1.88,12.82,3.34,7.26,14.48,7.57,20.55,2.37s8.18-13.6,9.4-21.5,2-16.21,6.45-22.87c2.74-4.13,6.78-7.44,8.69-12,2.68-6.39.7-14,3.19-20.43C344.54,307.88,354.31,304.08,361.26,298.06Z" style="fill: rgb(38, 50, 56); transform-origin: 293.433px 298.301px;" id="eld9qyrvhecq" class="animable"></path><g id="el5qobmt9mlzl"><g style="opacity: 0.6; transform-origin: 76.265px 256.82px;" class="animable"><path d="M76.32,254.73v0h0v0c0,.33-.06.64-.06,1,0,1.05,0,2.12-.05,3.18,0-1.06,0-2.13.05-3.18C76.26,255.37,76.29,255.06,76.32,254.73Z" style="fill: rgb(38, 50, 56); transform-origin: 76.265px 256.82px;" id="el6b3p8e762at" class="animable"></path></g></g><g id="el6qc59kbu8k3"><g style="opacity: 0.6; transform-origin: 76.1975px 265.93px;" class="animable"><path d="M76.19,264.64c0,.86,0,1.73,0,2.58h0C76.21,266.37,76.21,265.5,76.19,264.64Z" style="fill: rgb(38, 50, 56); transform-origin: 76.1975px 265.93px;" id="elsuhfcc4c0ae" class="animable"></path></g></g><path d="M100.41,275.59l-1.06-.17c-3.09-.34-6.72-.5-8.42-3.07-2-3,0-7.42-2.06-10.35-1.06-1.53-2.9-2.2-4.41-3.29s-2.79-3.06-1.87-4.68c.76-1.37,2.71-1.65,3.68-2.9a2.85,2.85,0,0,0,0-3.49c-3.18-3.76-6.72,3.91-8.48,5.72a16.86,16.86,0,0,1-1.42,1.34v0c0,.33-.06.64-.06,1,0,1.05,0,2.12-.05,3.18s-.06,2.12-.06,3.18c0,.86,0,1.72,0,2.58s0,1.73,0,2.58a28.92,28.92,0,0,1,5.44,2.68c3.43,2,7.25,4.6,7.48,8.56a3.22,3.22,0,0,0,.36,1.87,2.67,2.67,0,0,0,1.64.83,48.23,48.23,0,0,0,9,1.26" style="fill: rgb(38, 50, 56); transform-origin: 88.305px 264.518px;" id="elq557da46gkj" class="animable"></path><path d="M100.11,282.42c0,3.54.3,7.25.25,10.76-.09,5.11-1.76,10.16-1.2,15.2.81,7.14,5.77,13,10.09,18.74,16.46,22,25.52,48.34,35.14,74.16h0c1.79,1.42,3.6,2.76,5.44,4.07q2.17,1.57,4.4,3.07t4.5,2.93c1.06.67,2.12,1.31,3.2,1.95-.13-.31-.27-.58-.41-.89-3.88-8.51-4.1-20.78,4.24-25,1.58-.81,3.4-1.25,4.71-2.48,3.71-3.52.67-10.77,4.38-14.28,2.09-2,5.35-1.81,8-3,4.65-2.15,6.16-8.12,5.8-13.25s-2.07-10.18-1.48-15.28c.92-7.73,6.94-15.57,3.48-22.54-3.87-7.78-15.17-6.53-23.12-10-11.1-4.88-14.53-18.66-21.78-28.39-6.49-8.7-21.67-18.27-33.21-15.65-8.37,1.9-11.24,6.89-12.11,13" style="fill: rgb(38, 50, 56); transform-origin: 145.379px 337.7px;" id="el15h3itgdfp4" class="animable"></path><path d="M87.22,210.74c3.29-2.81,9-3.15,11.52.37,1.81,2.51,1.39,5.94.92,9-.64,4.12-1.28,8.25-2,12.38a6.41,6.41,0,0,0,.17,3.71c1.22,2.62,5.52,2.12,7.16-.23s1.48-5.55,1-8.39-1-5.89.09-8.56c2.79-6.64,12.69-5.64,18.43-10,3.57-2.68,5.16-7.17,7.28-11.1s5.66-7.86,10.13-7.67c1.5.06,3,.62,4.49.56,4.4-.14,7-6.58,3.85-9.71a10.59,10.59,0,0,1-2-2c-.78-1.48.06-3.38,1.4-4.38a10.39,10.39,0,0,1,4.68-1.51q5.65-.91,11.3-1.78c4.15-.64,9.48-2.79,8.89-6.95-.5-3.6-5.38-5.21-6.1-8.78a11.89,11.89,0,0,0-.48-2.62c-1.14-2.29-4.57-1.37-6.77-.14-.9-3.32-5.64-4.83-8.29-2.65-2.23,1.84-2.51,5.07-3.29,7.83-1.84,6.7-7.17,11.77-12.24,16.49-1.7,1.56-3.63,3.23-5.94,3.34s-4.74-2.37-3.68-4.4c.72-1.4,2.73-2.21,2.53-3.77-.27-2-3.68-1.81-4.35-3.68,1.34-5.52,7.67-7.81,12.53-10.77a30.31,30.31,0,0,0,12.8-15.72,4,4,0,0,0,.16-3.24c-.72-1.39-2.59-1.62-4.18-1.62-3.74-.05-8.39.45-9.76,3.94-.73,1.86-.2,4-.64,5.94-1.31,5.8-9.26,6.44-14.11,9.9-1.9,1.33-3.38,3.2-5.47,4.24-2.26,1.08-4.91,1-7.42,1.19-.44,0-.89.09-1.34.14q-2.3,3.21-4.43,6.52c-1.43,2.21-2.8,4.46-4.13,6.73a174,174,0,0,0-15.28,34.08q-2.05,6.26-3.62,12.71t-2.66,13.09c1.73-3.57,2.51-8,3.18-11.1C82.59,218,84,213.56,87.22,210.74Z" style="fill: rgb(38, 50, 56); transform-origin: 126.473px 186.353px;" id="el5zcghyhwwls" class="animable"></path><path d="M235.05,124c1.67-2.19,1.18-5.33,2.26-7.86,1.79-4.2,7.37-5.7,9.3-9.83.75-1.59.93-3.54,2.23-4.72,1.08-1,2.69-1.18,3.85-2.07,2.6-2,1.52-6.52-1.24-8.28-6.91-4.42-19.63.69-25.61,5-7.67,5.55-15.19,12.24-25.4,11.59-2.82-.18-5.75-1-8.39,0s-4.26,5-2,6.63c1.26.93,3.06.67,4.48,1.33,2.63,1.22,2.9,5,1.61,7.63s-3.6,4.55-5.12,7a13.34,13.34,0,0,0-1.9,8.08,7.34,7.34,0,0,0,2.4,5.18c3.17,2.54,8,.37,10.7-2.68s4.55-7,8-9.08a20,20,0,0,1,5.73-2l13.32-3.17C231.44,126.31,233.73,125.7,235.05,124Z" style="fill: rgb(38, 50, 56); transform-origin: 221.575px 117.17px;" id="els6nv5808ijg" class="animable"></path><g id="elsi3bp6yvhzf"><g style="opacity: 0.6; transform-origin: 418.665px 203.88px;" class="animable"><path d="M417.48,200.51q1.26,3.35,2.37,6.74-1.11-3.39-2.37-6.74s0,0,0,0h0Z" style="fill: rgb(38, 50, 56); transform-origin: 418.665px 203.88px;" id="eli5iqz0wo93n" class="animable"></path></g></g><path d="M428.5,259.63c0-2.53-.09-5-.23-7.55s-.33-5-.58-7.48c-.19-2-.42-4-.7-6s-.58-4.17-.93-6.24a171.41,171.41,0,0,0-4.11-18.3q-1-3.45-2.1-6.84t-2.37-6.74v0h0c-.89-1.67-1.84-3.32-2.87-4.94-9.79-15.5-24-27.66-34.78-42.5-3.51-4.82-6.24-8.81-12.46-9.76-9.21-1.42-13.86,3.82-20.39-4.91-1.76-2.34-4.82-4.52-7.42-3.12.67,1.87,1.37,3.74,2,5.63a2.61,2.61,0,0,1,.22,1.23c-.14,1.31-2.09,1.67-3.21.95s-1.67-2.07-2.45-3.15c-2.9-4.16-9.71-4.69-13.25-1.09a5.08,5.08,0,0,0-2.93-4.13,6,6,0,0,1-7.58,4.88c-.53-1.7,2.51-2,3.57-3.46s-.2-3.26-1.45-4.4A19.43,19.43,0,0,0,302.39,127c-2.82,0-5.86.48-8.32-1-1.42-.84-2.42-2.23-3.87-3-3.1-1.76-7-.14-10.1,1.59-4.27,2.37-8.67,5.35-10.18,10s1.84,10.9,6.7,10.32c1.22-.17,2.51-.75,3.71-.42,1.72.47,2.51,2.48,2.64,4.27s-.05,3.65.81,5.21,3.38,2.35,4.35.87c2.29-2.18,2-5.83,1.43-8.93s-1.2-6.58.64-9.12,7.17-1.73,6.8,1.4c-.22,1.84-2.31,3.18-2.23,5s2.4,2.9,4.3,2.81,3.82-.75,5.66-.28,3.34,2.88,2,4.24c-2.32,2.62-8.34-1.87-9.54,1.4-.34.83,0,1.78-.09,2.67-.22,2.74-3.65,3.74-6.38,4.08s-5.64.58-8.12-.59-4.18-4.43-2.76-6.78c-1.39-1-3.51,0-4.27,1.56s-.53,3.38-.3,5.08c-2.9-.64-5.5,1.81-7.14,4.24s-3.27,5.3-6.08,6.16-6.75-.3-8.23,2.26c-1.92,3.35,3.65,7.59,1.7,10.91-1.11,1.87-3.79,1.81-5.91,2.4-5.61,1.59-7.56,9.78-3.74,14.16s11.46,4.13,15.51-.05c2.82-2.88,4-6.92,6-10.38s5.89-6.55,9.74-5.44a12,12,0,0,1,4,2.51c1.86,1.57,3.73,3.13,5.6,4.72,1.2,1,2.51,2.26,2.4,3.82C289,194,288,195,287.6,196.13c-1.17,3.38,3.71,6.58,6.78,4.74s3.4-6.55,1.31-9.45c-2.9-4-9.45-6-9.29-11,3.35-2.73,8.62.14,10.57,4s2,8.43,3.66,12.42,6.25,7.55,10.09,5.6c-1-3.46-2-6.89-3-10.32,2.45-1.84,5.27,3.52,8.2,2.62,1.78-.55,2-3.12,1.23-4.85s-2.15-3.18-2.49-5c-.55-3.4,3.24-6.44,6.67-5.88s5.88,3.82,6.53,7.19a15.63,15.63,0,0,0,.89,4c1.28,2.68,4.6,3.49,7.33,4.6s5.61,3.88,4.46,6.61c-.52,1.2-1.78,2.35-1.33,3.57s2,1.57,2,2.74c0,.78-.83,1.31-1.56,1.61-1.84.76-3.85,1-5.63,1.87s-3.41,2.57-3.27,4.52c.23,2.79,3.55,4.13,5.11,6.44s1.28,5.13,2.23,7.64c.89,2.32,2.73,4.13,4.21,6.11,4.63,6.3,5.72,14.42,8,21.9,1,3.37,2.84,7.13,6.3,7.78,1.9.33,3.79-.39,5.58-1.09,5-2,10.18-4.1,13.66-8.14s4.69-10.69,1.09-14.67a2.82,2.82,0,0,0-1.7-1.09,5.12,5.12,0,0,0-2.62.92c-2.54,1.17-5.66.19-7.78-1.68s-3.38-4.43-4.63-6.94c-1.37-2.76-2.74-5.55-4.13-8.34,1.64-1.39,4.27-.81,6,.56s2.7,3.35,4.07,5c4.15,5.19,11,7.47,17.6,8.25a16.82,16.82,0,0,1,5,1c4.94,2.26,6.36,9.53,11.58,11.1,1.45.44,3.06.36,4.43,1,2.06,1,3.1,3.32,3.71,5.52,1.14,4.1,1.53,8.42,3.26,12.33s5.19,7.45,9.43,7.5a10.1,10.1,0,0,0,7.08-3.15v0c.23-3.85.36-7.7.36-11.6C428.55,261.25,428.55,260.44,428.5,259.63Z" style="fill: rgb(38, 50, 56); transform-origin: 336.239px 199.53px;" id="elpl6fwu2rzt" class="animable"></path><path d="M357.58,332.85c-2.63.52-3.15,2.06-4.58,4-1.86,2.53-4.52,5.07-6.21,7.57-2.86,4.23-.28,10.84-4.05,14.4a29.9,29.9,0,0,0-2.46,2,4.45,4.45,0,0,0,.91,6.15,6.06,6.06,0,0,0,6.57.12,9.64,9.64,0,0,0,4-5.5c.5-1.6.78-3.4,2-4.51,2.16-1.88,5.51-.48,8.35-.88C374.25,354.52,369.06,330.59,357.58,332.85Z" style="fill: rgb(38, 50, 56); transform-origin: 354.251px 350.349px;" id="elmkhmr73yrq" class="animable"></path></g><g id="freepik--Clouds--inject-293" class="animable" style="transform-origin: 231.57px 257.612px;"><path d="M334.32,136.18c-1.46-.9-3.25-1.51-4.08-3a8.16,8.16,0,0,1-.59-3.69,18.4,18.4,0,0,0-12.14-16.31c-1.67-.57-3.57-1-4.63-2.41-.87-1.17-.93-2.74-1.11-4.19-1.36-11.15-12.69-20.07-23.85-18.77-1.53-8.7-12.45-12.73-21.09-10.85-1.34.3-2.78.68-4.06.17a7.41,7.41,0,0,1-2.42-2.05c-7.65-8.28-22.5-8.22-30.09.12a17.42,17.42,0,0,0-28.95,5.24c-6.48-.35-13.13-.05-19.17,2.3s-11.45,7-13.42,13.19a20,20,0,0,0-23.42,23.35c-9.55-.35-18.58,7.57-19.86,17a7.17,7.17,0,0,0,.41,3.46h0c13.92-13,26.57-19.83,39.63-28.94,4.73-3.3,10.45-6.24,15.45-9.1,9-5.18,19.23-6.09,29.25-8.87,4.3-1.19,8.13-2.6,12.49-3.51,8.49-1.78,16.86-2.56,25.05.27,4.32,1.5,9.39,3.53,13.12.89A26.15,26.15,0,0,0,282,96c-1.76,2.45,1.11,5.75,4,6.62s6.31.83,8.42,3c2.47,2.55,1.85,6.85,3.75,9.85,2.15,3.38,6.69,4.09,10.67,4.47-.92,6.5,4.94,13.09,11.5,12.93-2.82,1.82-.71,6.49,2.33,7.9s6.78,1.43,9.32,3.63c3.45,3,3.83,9.24,8.21,10.51C340.5,148.05,340.18,139.79,334.32,136.18Z" style="fill: rgb(241, 62, 81); transform-origin: 232.829px 111.909px;" id="el4hdeovbaxjo" class="animable"></path><g id="els4sginfqo7f"><g style="opacity: 0.8; transform-origin: 232.829px 111.909px;" class="animable"><path d="M334.32,136.18c-1.46-.9-3.25-1.51-4.08-3a8.16,8.16,0,0,1-.59-3.69,18.4,18.4,0,0,0-12.14-16.31c-1.67-.57-3.57-1-4.63-2.41-.87-1.17-.93-2.74-1.11-4.19-1.36-11.15-12.69-20.07-23.85-18.77-1.53-8.7-12.45-12.73-21.09-10.85-1.34.3-2.78.68-4.06.17a7.41,7.41,0,0,1-2.42-2.05c-7.65-8.28-22.5-8.22-30.09.12a17.42,17.42,0,0,0-28.95,5.24c-6.48-.35-13.13-.05-19.17,2.3s-11.45,7-13.42,13.19a20,20,0,0,0-23.42,23.35c-9.55-.35-18.58,7.57-19.86,17a7.17,7.17,0,0,0,.41,3.46h0c13.92-13,26.57-19.83,39.63-28.94,4.73-3.3,10.45-6.24,15.45-9.1,9-5.18,19.23-6.09,29.25-8.87,4.3-1.19,8.13-2.6,12.49-3.51,8.49-1.78,16.86-2.56,25.05.27,4.32,1.5,9.39,3.53,13.12.89A26.15,26.15,0,0,0,282,96c-1.76,2.45,1.11,5.75,4,6.62s6.31.83,8.42,3c2.47,2.55,1.85,6.85,3.75,9.85,2.15,3.38,6.69,4.09,10.67,4.47-.92,6.5,4.94,13.09,11.5,12.93-2.82,1.82-.71,6.49,2.33,7.9s6.78,1.43,9.32,3.63c3.45,3,3.83,9.24,8.21,10.51C340.5,148.05,340.18,139.79,334.32,136.18Z" style="fill: rgb(255, 255, 255); transform-origin: 232.829px 111.909px;" id="eljgd4ez1fb7k" class="animable"></path></g></g><path d="M127.77,388.21c-2.86,1.74-3.94,4.27-4.73,7.53s1.15,7.29,4.48,7.68c-4.07,4.66-2.88,12.86,2.34,16.16a15.05,15.05,0,0,1,3.31,2.21,11.5,11.5,0,0,1,1.91,4.15,20.46,20.46,0,0,0,6.94,9.55,8.34,8.34,0,0,0,5.36,2.05c2-.11,3.91-1.68,3.86-3.63,2.74,1.83,5.6,3.71,8.86,4.23s7.05-.69,8.47-3.67c.66-1.39.76-3,1.48-4.36,1.71-3.19,6.09-3.7,9.67-3.2s7.39,1.57,10.7.11,4.68-7,1.36-8.46c5.7.32,10.57-6.32,8.54-11.66,4.15-1.18,8.43-2.42,11.79-5.14s5.56-7.33,4.17-11.42a11.42,11.42,0,0,0,11.8-16.84,11.13,11.13,0,0,0,.41-20.1c4.44-2.91,4.54-9.27,4.14-14.56l-1.08-14.6c2.93-.45,3.35-4.59,2.37-7.39s-2.58-5.93-1.11-8.51a9.35,9.35,0,0,0,1.46-2.48c.33-1.57-1.07-3-1.32-4.56-.82-5.14,9.77-7.51,7.72-12.3-1.35-3.15-7.57-3.52-6.8-6.86.43-1.87,2.86-2.32,4.26-3.62,3.44-3.2-.65-8.67-.85-13.36-.15-3.38-1.2-2.06-2-5.35-1.45-5.85-.92-7.9-3.14-5.63.38,7.29-.06,9.1-5.26,14.23a18.75,18.75,0,0,0-3.71,4.16C219.5,279.37,228.35,288,225,295c-1.64,3.39-5.74,5.05-7.41,8.43-3,6,3.06,13.92-.53,19.55-.72,1.14-1.78,2-2.58,3.12a8.68,8.68,0,0,0-.68,9c-1.3-2.12-4.89-1.36-6.2.76s-1,4.83-.69,7.31.63,5.16-.65,7.31c-1,1.64-2.83,2.86-3.08,4.76-.32,2.39,1.87,5.51-.15,6.83a4.57,4.57,0,0,1-2.11.47c-4,.41-7.3,3.73-8.85,7.47s-1.7,7.91-1.83,12c-5.5-.83-11.12,4.13-11,9.68a30.4,30.4,0,0,0-25.14,7.26,5.68,5.68,0,0,0-8.24.72c-4.74.53-8.81-2.81-18.08-11.41" style="fill: rgb(241, 62, 81); transform-origin: 181.899px 345.766px;" id="el0s935iwsnr9" class="animable"></path><g id="ele7sfa3y70sk"><g style="opacity: 0.8; transform-origin: 181.899px 345.766px;" class="animable"><path d="M127.77,388.21c-2.86,1.74-3.94,4.27-4.73,7.53s1.15,7.29,4.48,7.68c-4.07,4.66-2.88,12.86,2.34,16.16a15.05,15.05,0,0,1,3.31,2.21,11.5,11.5,0,0,1,1.91,4.15,20.46,20.46,0,0,0,6.94,9.55,8.34,8.34,0,0,0,5.36,2.05c2-.11,3.91-1.68,3.86-3.63,2.74,1.83,5.6,3.71,8.86,4.23s7.05-.69,8.47-3.67c.66-1.39.76-3,1.48-4.36,1.71-3.19,6.09-3.7,9.67-3.2s7.39,1.57,10.7.11,4.68-7,1.36-8.46c5.7.32,10.57-6.32,8.54-11.66,4.15-1.18,8.43-2.42,11.79-5.14s5.56-7.33,4.17-11.42a11.42,11.42,0,0,0,11.8-16.84,11.13,11.13,0,0,0,.41-20.1c4.44-2.91,4.54-9.27,4.14-14.56l-1.08-14.6c2.93-.45,3.35-4.59,2.37-7.39s-2.58-5.93-1.11-8.51a9.35,9.35,0,0,0,1.46-2.48c.33-1.57-1.07-3-1.32-4.56-.82-5.14,9.77-7.51,7.72-12.3-1.35-3.15-7.57-3.52-6.8-6.86.43-1.87,2.86-2.32,4.26-3.62,3.44-3.2-.65-8.67-.85-13.36-.15-3.38-1.2-2.06-2-5.35-1.45-5.85-.92-7.9-3.14-5.63.38,7.29-.06,9.1-5.26,14.23a18.75,18.75,0,0,0-3.71,4.16C219.5,279.37,228.35,288,225,295c-1.64,3.39-5.74,5.05-7.41,8.43-3,6,3.06,13.92-.53,19.55-.72,1.14-1.78,2-2.58,3.12a8.68,8.68,0,0,0-.68,9c-1.3-2.12-4.89-1.36-6.2.76s-1,4.83-.69,7.31.63,5.16-.65,7.31c-1,1.64-2.83,2.86-3.08,4.76-.32,2.39,1.87,5.51-.15,6.83a4.57,4.57,0,0,1-2.11.47c-4,.41-7.3,3.73-8.85,7.47s-1.7,7.91-1.83,12c-5.5-.83-11.12,4.13-11,9.68a30.4,30.4,0,0,0-25.14,7.26,5.68,5.68,0,0,0-8.24.72c-4.74.53-8.81-2.81-18.08-11.41" style="fill: rgb(255, 255, 255); transform-origin: 181.899px 345.766px;" id="elbajxb4a0ize" class="animable"></path></g></g><path d="M139.66,360a10,10,0,0,1,.22-7.24,5.8,5.8,0,0,1,6-3.35c2.37.47,4,2.64,6,4s5.57,1.18,6-1.2c-2.37-2.17-1.22-6.85,1.89-7.67,2.16-.57,4.35.5,6.51,1.06s5,.27,5.85-1.79c.66-1.63-.27-3.68.67-5.17,2.06-3.24,8.27,1.45,10.66-1.54,1-1.23.62-3.11,1.44-4.45,1-1.67,3.31-1.82,5.19-2.36,7.14-2.06,9.52-10.79,10.74-18.12,2.71,4.09,1.63,9.62-.44,14.07s-5,8.56-6.06,13.36a13.88,13.88,0,0,1-1,3.74c-1.37,2.58-4.79,3.63-5.92,6.31-.86,2-.27,4.75-1.92,6.22-2.21,1.95-6.71,0-8.1,2.6-1,1.81.73,4,.5,6-.27,2.38-2.92,3.6-5.19,4.37l-14.49,4.92a5.12,5.12,0,0,1-3.49.33c-1.44-.58-2.72-2.47-4.08-1.71a3.29,3.29,0,0,0-1,1.14c-2.27,3.39-7.35,3.81-11,2.05s-6.26-5.14-8.72-8.39c-.84-1.12-1.72-2.5-1.23-3.81.69-1.82,3.22-1.78,5.16-1.57s4.59-.39,4.59-2.33" style="fill: rgb(241, 62, 81); transform-origin: 165.498px 344.379px;" id="elj9djvjjdjjq" class="animable"></path><g id="el25hkmvegwpd"><g style="opacity: 0.8; transform-origin: 165.498px 344.379px;" class="animable"><path d="M139.66,360a10,10,0,0,1,.22-7.24,5.8,5.8,0,0,1,6-3.35c2.37.47,4,2.64,6,4s5.57,1.18,6-1.2c-2.37-2.17-1.22-6.85,1.89-7.67,2.16-.57,4.35.5,6.51,1.06s5,.27,5.85-1.79c.66-1.63-.27-3.68.67-5.17,2.06-3.24,8.27,1.45,10.66-1.54,1-1.23.62-3.11,1.44-4.45,1-1.67,3.31-1.82,5.19-2.36,7.14-2.06,9.52-10.79,10.74-18.12,2.71,4.09,1.63,9.62-.44,14.07s-5,8.56-6.06,13.36a13.88,13.88,0,0,1-1,3.74c-1.37,2.58-4.79,3.63-5.92,6.31-.86,2-.27,4.75-1.92,6.22-2.21,1.95-6.71,0-8.1,2.6-1,1.81.73,4,.5,6-.27,2.38-2.92,3.6-5.19,4.37l-14.49,4.92a5.12,5.12,0,0,1-3.49.33c-1.44-.58-2.72-2.47-4.08-1.71a3.29,3.29,0,0,0-1,1.14c-2.27,3.39-7.35,3.81-11,2.05s-6.26-5.14-8.72-8.39c-.84-1.12-1.72-2.5-1.23-3.81.69-1.82,3.22-1.78,5.16-1.57s4.59-.39,4.59-2.33" style="fill: rgb(255, 255, 255); transform-origin: 165.498px 344.379px;" id="elmpahad5ppv" class="animable"></path></g></g><path d="M296.29,267.69c9.73,12.23,9.83,11.72,9.91,19.55,0,1.42-.73,4.87-.18,6.17s3.36,4.56,3.66,6c1.29,6.27-2,10.94-.73,17.21.49,2.37,3.57,4.79,4.85,8.12,3,6.68,1,13.49-2.41,20-.9,1.74-2.23,3.29-2.75,5.18s-.17,3.86,0,5.8a26.06,26.06,0,0,1-3.43,14.8c4.6-1.35,7.11-6.17,9.1-10.52l5.08-11.08c1.95-4.26,4-8.63,7.59-11.7a5.58,5.58,0,0,0,1.46-1.78c2.42-4.94-4.81-5.6-4.58-9.2.08-1.13.92-2,1.5-3,2.17-3.64-.05-9.09-4.15-10.18a6.67,6.67,0,0,0-1-12.58h0a3.5,3.5,0,0,0-1.68-5.81,8.2,8.2,0,0,0-3.16-.1c2.79-2.89.19-8.73-3.82-8.6,2.15-1.47.22-4.77-1.74-6.49l-13.45-11.78" style="fill: rgb(241, 62, 81); transform-origin: 312.613px 319.105px;" id="eljgcykbnn2a" class="animable"></path><g id="elbppkbidtyrw"><g style="opacity: 0.8; transform-origin: 312.613px 319.105px;" class="animable"><path d="M296.29,267.69c9.73,12.23,9.83,11.72,9.91,19.55,0,1.42-.73,4.87-.18,6.17s3.36,4.56,3.66,6c1.29,6.27-2,10.94-.73,17.21.49,2.37,3.57,4.79,4.85,8.12,3,6.68,1,13.49-2.41,20-.9,1.74-2.23,3.29-2.75,5.18s-.17,3.86,0,5.8a26.06,26.06,0,0,1-3.43,14.8c4.6-1.35,7.11-6.17,9.1-10.52l5.08-11.08c1.95-4.26,4-8.63,7.59-11.7a5.58,5.58,0,0,0,1.46-1.78c2.42-4.94-4.81-5.6-4.58-9.2.08-1.13.92-2,1.5-3,2.17-3.64-.05-9.09-4.15-10.18a6.67,6.67,0,0,0-1-12.58h0a3.5,3.5,0,0,0-1.68-5.81,8.2,8.2,0,0,0-3.16-.1c2.79-2.89.19-8.73-3.82-8.6,2.15-1.47.22-4.77-1.74-6.49l-13.45-11.78" style="fill: rgb(255, 255, 255); transform-origin: 312.613px 319.105px;" id="elvsno0vkm60c" class="animable"></path></g></g><path d="M277.8,257c-3.58,4.91.06,18.89.94,24.9.63,4.29-.71,8.59-1.56,12.84-2,10.18-1.27,20.68-.65,31.05.59,9.92,1,20-1.38,29.68-2.92,11.71-10,22.81-8.82,34.83.17,1.85.54,3.78-.09,5.54-.69,1.94-2.44,3.26-4.15,4.42-8.14,5.51-17.59,10.11-22.45,18.65-.35.62-.72,1.25-1.1,1.89A26.29,26.29,0,0,1,210,433.12h0s9.62,22.5,22.37,8.74c.95-1,1.72-2.5,3.12-2.58a4.28,4.28,0,0,1,2.76,1.3c4.53,3.71,12.05,6.94,15.41,2.14,2.08-3,1.18-7.78,4.23-9.72,1.26-.8,2.85-.82,4.31-1.13a10.7,10.7,0,0,0,8-11.69c-.32-2-1.24-4.09-.65-6.05,1.39-4.64,9.28-4.11,11.12-8.58,1.19-2.91-.93-6.3,0-9.31,1.58-5.27,11.27-6.67,10-12-.72-3-4.56-3.93-6.15-6.52s-.49-5.9.63-8.71l9.3-23.4c1.49-3.74,2.85-8.4.21-11.44-1.52-1.75-4.13-2.55-5.08-4.67-.72-1.59-.26-3.43.09-5.14A37.33,37.33,0,0,0,286.79,301c1.54-7.15,2.62-15.83-2.88-20.65,1.85-8.09-8.78-15.55-6.11-23.41" style="fill: rgb(241, 62, 81); transform-origin: 253.078px 351.628px;" id="elcvnbwsmdzvq" class="animable"></path><g id="elsetul6x6gs9"><g style="opacity: 0.8; transform-origin: 253.078px 351.628px;" class="animable"><path d="M277.8,257c-3.58,4.91.06,18.89.94,24.9.63,4.29-.71,8.59-1.56,12.84-2,10.18-1.27,20.68-.65,31.05.59,9.92,1,20-1.38,29.68-2.92,11.71-10,22.81-8.82,34.83.17,1.85.54,3.78-.09,5.54-.69,1.94-2.44,3.26-4.15,4.42-8.14,5.51-17.59,10.11-22.45,18.65-.35.62-.72,1.25-1.1,1.89A26.29,26.29,0,0,1,210,433.12h0s9.62,22.5,22.37,8.74c.95-1,1.72-2.5,3.12-2.58a4.28,4.28,0,0,1,2.76,1.3c4.53,3.71,12.05,6.94,15.41,2.14,2.08-3,1.18-7.78,4.23-9.72,1.26-.8,2.85-.82,4.31-1.13a10.7,10.7,0,0,0,8-11.69c-.32-2-1.24-4.09-.65-6.05,1.39-4.64,9.28-4.11,11.12-8.58,1.19-2.91-.93-6.3,0-9.31,1.58-5.27,11.27-6.67,10-12-.72-3-4.56-3.93-6.15-6.52s-.49-5.9.63-8.71l9.3-23.4c1.49-3.74,2.85-8.4.21-11.44-1.52-1.75-4.13-2.55-5.08-4.67-.72-1.59-.26-3.43.09-5.14A37.33,37.33,0,0,0,286.79,301c1.54-7.15,2.62-15.83-2.88-20.65,1.85-8.09-8.78-15.55-6.11-23.41" style="fill: rgb(255, 255, 255); transform-origin: 253.078px 351.628px;" id="eljcbwv5ny4kd" class="animable"></path></g></g></g><g id="freepik--Birds--inject-293" class="animable" style="transform-origin: 228.19px 144.541px;"><path d="M417.48,77.88s-.47-.13-1.32-.31a10.69,10.69,0,0,0-3.64-.1,9.82,9.82,0,0,0-4.89,2.13,10.21,10.21,0,0,0-3.44,5.48v.06l-.19.72-.28-.68a10.89,10.89,0,0,0-4.12-5,10.6,10.6,0,0,0-5-1.7,11.6,11.6,0,0,0-3.62.29c-.84.21-1.29.39-1.31.35a1.46,1.46,0,0,1,.31-.17,7.26,7.26,0,0,1,.95-.36,10.78,10.78,0,0,1,9,1.22A11.12,11.12,0,0,1,404.16,85l-.46,0,0-.06a10.47,10.47,0,0,1,3.63-5.72,10.14,10.14,0,0,1,8.85-1.86,5.9,5.9,0,0,1,1,.33A1,1,0,0,1,417.48,77.88Z" style="fill: rgb(38, 50, 56); transform-origin: 403.575px 81.446px;" id="elqxia5jle39k" class="animable"></path><path d="M59.71,206.14s-.35-.1-1-.23a7.94,7.94,0,0,0-2.71-.08,7.38,7.38,0,0,0-3.65,1.59,7.63,7.63,0,0,0-2.56,4.09v0l-.14.54-.21-.51a8.14,8.14,0,0,0-3.07-3.72,8,8,0,0,0-3.77-1.28,8.56,8.56,0,0,0-2.7.23c-.63.15-1,.29-1,.26s.07-.06.23-.13a4.71,4.71,0,0,1,.7-.27,7.84,7.84,0,0,1,2.76-.34,7.93,7.93,0,0,1,3.93,1.25,8.37,8.37,0,0,1,3.23,3.87l-.35,0,0,0a7.77,7.77,0,0,1,2.71-4.27A7.38,7.38,0,0,1,56,205.58a7.2,7.2,0,0,1,2.79.2,4.57,4.57,0,0,1,.72.24Z" style="fill: rgb(38, 50, 56); transform-origin: 49.305px 208.787px;" id="el3j3aer4wnb9" class="animable"></path><path d="M380.53,78.34s-.46.52-1.28,1.45A31.74,31.74,0,0,0,376.12,84a30.83,30.83,0,0,0-4.64,16.43v.2l-.48,0a27.11,27.11,0,0,0-3-8.89,27.46,27.46,0,0,0-4.57-6.18,28.24,28.24,0,0,0-4-3.36c-1-.7-1.6-1-1.58-1.09a2.15,2.15,0,0,1,.45.22,13.84,13.84,0,0,1,1.23.72,24.56,24.56,0,0,1,4.1,3.27,27.2,27.2,0,0,1,7.82,15.24l-.49,0v-.21a30.17,30.17,0,0,1,4.83-16.61,27.18,27.18,0,0,1,3.28-4.16c.42-.47.79-.78,1-1A2.05,2.05,0,0,1,380.53,78.34Z" style="fill: rgb(38, 50, 56); transform-origin: 369.19px 89.485px;" id="elotvw1a18ro" class="animable"></path></g><g id="freepik--Flags--inject-293" class="animable" style="transform-origin: 250.207px 235.503px;"><path d="M404.35,408.54a10.46,10.46,0,0,1-6.93,5.64c-2.49.59-8.11-.77-10.73.87-2.15,1.35-2.34,4.23-1.66,6.38l-11.58-14.14a9.38,9.38,0,0,1,9-4.74c2.13.22,4.09,1.18,6.14,1.76s4.42.76,6.17-.45c2.33-1.59,2.75-4.94,4.84-6.82a9.82,9.82,0,0,1,.07,7,14,14,0,0,0,4.57-4.39A10.46,10.46,0,0,1,404.35,408.54Z" style="fill: rgb(241, 62, 81); transform-origin: 389.369px 409.235px;" id="elagg0mz6cm8" class="animable"></path><path d="M385.54,422c-.12.09-7.93-9.13-17.46-20.59S350.91,380.61,351,380.52s7.92,9.13,17.46,20.6S385.65,422,385.54,422Z" style="fill: rgb(224, 224, 224); transform-origin: 368.27px 401.26px;" id="elzcxkvstd2h" class="animable"></path><path d="M82.32,149.25a8.58,8.58,0,0,0-3.18,6.62c0,2.1,2.16,6.33,1.34,8.75-.67,2-2.93,2.67-4.79,2.54l13.53,6.57a7.75,7.75,0,0,0,2.07-8.13A30.92,30.92,0,0,0,88.7,161a6.07,6.07,0,0,1-.81-5c.83-2.16,3.42-3.14,4.54-5.17a8.11,8.11,0,0,0-5.59,1.28,11.58,11.58,0,0,1,2.64-4.5A8.61,8.61,0,0,0,82.32,149.25Z" style="fill: rgb(241, 62, 81); transform-origin: 84.06px 160.57px;" id="elutgflujd7cm" class="animable"></path><path d="M75.11,166.87c.07-.13,9,4.18,20,9.62s19.84,9.95,19.78,10.08-9-4.18-20-9.62S75.05,167,75.11,166.87Z" style="fill: rgb(224, 224, 224); transform-origin: 95px 176.72px;" id="elq2fcfz9snxg" class="animable"></path><path d="M439.34,154.38a15.85,15.85,0,0,0-10.4-8.68c-3.77-1-12.31,1-16.25-1.55-3.24-2.09-3.47-6.46-2.39-9.71l-17.85,21.22A14.26,14.26,0,0,0,406.06,163c3.22-.3,6.22-1.71,9.34-2.55s6.71-1.06,9.35.8c3.49,2.46,4.06,7.55,7.19,10.46a14.9,14.9,0,0,0,.25-10.56,21.11,21.11,0,0,1,6.84,6.75A15.84,15.84,0,0,0,439.34,154.38Z" style="fill: rgb(241, 62, 81); transform-origin: 416.577px 153.075px;" id="elb6wn6camp6a" class="animable"></path><path d="M411.08,133.53c.14.11-11.66,14.14-26.35,31.33s-26.71,31-26.85,30.92,11.67-14.14,26.36-31.34S411,133.41,411.08,133.53Z" style="fill: rgb(224, 224, 224); transform-origin: 384.48px 164.655px;" id="elyg248badv2f" class="animable"></path><path d="M78.19,339.5l-14.94,5.09s.19.42.49,1.18c1.76,4.33,7.62,19.56,6.63,28.29,0,0,5.37-4.45,5.95-7.93l6.61,6.38S83.93,358.86,78.19,339.5Z" style="fill: rgb(241, 62, 81); transform-origin: 73.1234px 356.78px;" id="elt15qfhwbxjs" class="animable"></path><path d="M59.71,345.8c-.05-.14,12.71-4.61,28.49-10s28.61-9.62,28.65-9.49-12.7,4.61-28.49,10S59.76,345.93,59.71,345.8Z" style="fill: rgb(224, 224, 224); transform-origin: 88.28px 336.055px;" id="elz0vtf7i7f7" class="animable"></path><path d="M218.16,49.12a12.85,12.85,0,0,0-10.45,3.31c-2.29,2.16-4.68,8.84-8.13,10.42-2.84,1.3-5.92-.45-7.67-2.6l6.7,21.41a11.53,11.53,0,0,0,10.95-6.07c1.2-2.33,1.55-5,2.33-7.48s2.2-5,4.62-6c3.2-1.31,6.92.51,10.26-.35A12,12,0,0,0,219.68,57a17.18,17.18,0,0,1,7.59-1.73A12.85,12.85,0,0,0,218.16,49.12Z" style="fill: rgb(241, 62, 81); transform-origin: 209.59px 65.3457px;" id="elhn2rkfqey8g" class="animable"></path><path d="M191.63,59.32c.14,0,4.57,14.12,9.9,31.62s9.54,31.73,9.4,31.77-4.57-14.11-9.9-31.62S191.49,59.36,191.63,59.32Z" style="fill: rgb(224, 224, 224); transform-origin: 201.28px 91.015px;" id="eli86xkvohh6b" class="animable"></path></g><g id="freepik--Airplane--inject-293" class="animable" style="transform-origin: 254.575px 247.577px;"><g id="elimcjrf6of4d"><g style="opacity: 0.3; transform-origin: 269.28px 260.888px;" class="animable"><path d="M276.55,318.56a187,187,0,0,0,2.36-28.92c-.07-3.8-.1-13-.12-24.66h21.49l60.89,16.36-4.28-11.68L329.24,254.6V237.18h-13.5v10.06l-13.86-7.54v-19h-13.5v11.66l-9.45-5.15-.12.13c0-22,.08-42.36.1-47.71a8.52,8.52,0,0,0-.43-2.7A140.8,140.8,0,0,0,272,162.17a3.18,3.18,0,0,0-2-1.64,2.81,2.81,0,0,0-2.85,1.64s-7.12,12.58-7.4,16.24c-.12,1.64-.14,24.3-.11,48.79h0l-9.46,5.15V220.69h-13.5v19l-13.85,7.54V237.18h-13.5V254.6l-27.66,15.06-4.28,11.68L238.28,265h21.43c0,14.65.05,25.23.05,25.23s.25,15.67,2.49,28.35l-29.19,20v8.15l34.41-10.13.42,22.47h0l0,2.19h2.9l.14-7.64.3-17h.62l33.61,10.13V338.8l-28.95-20.24Z" id="el9s1i1fhog5r" class="animable" style="transform-origin: 269.28px 260.888px;"></path></g></g><g id="elz0drs4we94"><rect x="304.52" y="220.67" width="15.28" height="21.66" style="fill: rgb(255, 255, 255); transform-origin: 312.16px 231.5px; transform: rotate(180deg);" class="animable"></rect></g><g id="elky6y9a8yfmk"><rect x="273.57" y="202.02" width="15.28" height="21.66" style="fill: rgb(255, 255, 255); transform-origin: 281.21px 212.85px; transform: rotate(180deg);" class="animable"></rect></g><polygon points="355.94 270.64 351.09 257.42 262.87 209.38 262.87 252.13 287.04 252.13 355.94 270.64" style="fill: rgb(255, 255, 255); transform-origin: 309.405px 240.01px;" id="el3epgut1j0yy" class="animable"></polygon><path d="M262.87,239.13a2,2,0,0,1,.45,0l1.29-.05,4.88-.08,17.09-.11h.05l.06,0,14.7,6.15c13.52,5.67,25.3,10.69,31.45,13.37l.1,0v.1c0,1.71-.05,3.06-.07,4.05,0,.43,0,.77,0,1.06a.18.18,0,1,1-.08,0c0-.29,0-.63,0-1.06,0-1,0-2.34-.07-4.05l.09.14c-6.22-2.51-18.05-7.41-31.57-13.09l-14.68-6.19.11,0-17.09-.11-4.88-.08-1.29,0A1.66,1.66,0,0,1,262.87,239.13Z" style="fill: rgb(38, 50, 56); transform-origin: 297.94px 251.433px;" id="elk4sr285v20r" class="animable"></path><path d="M286.38,252.25c-.17,0-.31-2.91-.31-6.5s.14-6.51.31-6.51.3,2.92.3,6.51S286.55,252.25,286.38,252.25Z" style="fill: rgb(38, 50, 56); transform-origin: 286.375px 245.745px;" id="el28jeugfgok2" class="animable"></path><polygon points="355.94 270.64 347.88 260.79 262.87 220.67 262.87 209.38 351.09 257.42 355.94 270.64" style="fill: rgb(241, 62, 81); transform-origin: 309.405px 240.01px;" id="elrabl51ddbmc" class="animable"></polygon><rect x="184.12" y="220.67" width="15.28" height="21.66" style="fill: rgb(255, 255, 255); transform-origin: 191.76px 231.5px;" id="eldzbs2azz7yo" class="animable"></rect><rect x="215.07" y="202.02" width="15.28" height="21.66" style="fill: rgb(255, 255, 255); transform-origin: 222.71px 212.85px;" id="elbci6lpsx08f" class="animable"></rect><polygon points="147.98 270.64 152.83 257.42 241.05 209.38 241.05 252.13 216.88 252.13 147.98 270.64" style="fill: rgb(255, 255, 255); transform-origin: 194.515px 240.01px;" id="elodt8v2wiy2n" class="animable"></polygon><polygon points="244 312.76 210.97 335.41 210.97 344.63 249.91 333.17 254.91 333.17 292.94 344.63 292.94 335.66 260.18 312.76 244 312.76" style="fill: rgb(241, 62, 81); transform-origin: 251.955px 328.695px;" id="elawqb7bu78jl" class="animable"></polygon><path d="M249.55,135.79s-8,14.24-8.36,18.38,0,126.5,0,126.5.79,49.87,11.63,50c0,0,1.43,2.07,3.82-2.39s6.53-31.54,6.22-48.27c-.3-15.56-.05-111.2,0-124.5a9.93,9.93,0,0,0-.48-3.06,158.17,158.17,0,0,0-7.3-16.68,3.53,3.53,0,0,0-2.29-1.86A3.19,3.19,0,0,0,249.55,135.79Z" style="fill: rgb(241, 62, 81); transform-origin: 251.953px 232.522px;" id="elisqivueooih" class="animable"></path><path d="M249.55,135.79s-8,14.24-8.36,18.38,0,126.5,0,126.5.79,49.87,11.63,50c0,0,1.43,2.07,3.82-2.39s6.53-31.54,6.22-48.27c-.3-15.56-.05-111.2,0-124.5a9.93,9.93,0,0,0-.48-3.06,158.17,158.17,0,0,0-7.3-16.68,3.53,3.53,0,0,0-2.29-1.86A3.19,3.19,0,0,0,249.55,135.79Z" style="fill: rgb(255, 255, 255); transform-origin: 251.953px 232.522px;" id="eldcd4hal970v" class="animable"></path><path d="M251.47,146.31v3.59s-2.06-.73-5,1.46l-1-2.52A7.57,7.57,0,0,1,251.47,146.31Z" style="fill: rgb(38, 50, 56); transform-origin: 248.47px 148.831px;" id="elhs3ls50l51" class="animable"></path><polygon points="244.64 150.46 243.47 152.06 244.8 153.38 245.88 151.92 244.64 150.46" style="fill: rgb(38, 50, 56); transform-origin: 244.675px 151.92px;" id="eljs4fgqo4dlc" class="animable"></polygon><path d="M252.49,146.33v3.59s2.06-.73,5,1.47l1-2.53A7.64,7.64,0,0,0,252.49,146.33Z" style="fill: rgb(38, 50, 56); transform-origin: 255.49px 148.857px;" id="elxwpbxumvdw" class="animable"></path><polygon points="259.32 150.48 260.49 152.08 259.16 153.41 258.08 151.94 259.32 150.48" style="fill: rgb(38, 50, 56); transform-origin: 259.285px 151.945px;" id="elmtvlxqrwbv" class="animable"></polygon><rect x="242.34" y="167.56" width="2.61" height="2.26" style="fill: rgb(38, 50, 56); transform-origin: 243.645px 168.69px;" id="el5tt4dn7hd3v" class="animable"></rect><rect x="242.34" y="171.89" width="2.61" height="2.26" style="fill: rgb(38, 50, 56); transform-origin: 243.645px 173.02px;" id="eln6f4j6xwzta" class="animable"></rect><rect x="242.34" y="176.22" width="2.61" height="2.26" style="fill: rgb(38, 50, 56); transform-origin: 243.645px 177.35px;" id="elvo35kzy8ka" class="animable"></rect><rect x="242.34" y="180.56" width="2.61" height="2.26" style="fill: rgb(38, 50, 56); transform-origin: 243.645px 181.69px;" id="elsubsnrfiaar" class="animable"></rect><rect x="242.34" y="184.89" width="2.61" height="2.26" style="fill: rgb(38, 50, 56); transform-origin: 243.645px 186.02px;" id="el22ktn1z3yik" class="animable"></rect><rect x="242.34" y="189.22" width="2.61" height="2.26" style="fill: rgb(38, 50, 56); transform-origin: 243.645px 190.35px;" id="ele17revnbtn" class="animable"></rect><rect x="242.34" y="193.55" width="2.61" height="2.26" style="fill: rgb(38, 50, 56); transform-origin: 243.645px 194.68px;" id="el6x6owwsasl" class="animable"></rect><rect x="242.34" y="197.88" width="2.61" height="2.26" style="fill: rgb(38, 50, 56); transform-origin: 243.645px 199.01px;" id="el5gam7xyph7t" class="animable"></rect><rect x="242.34" y="202.22" width="2.61" height="2.26" style="fill: rgb(38, 50, 56); transform-origin: 243.645px 203.35px;" id="el6v22ymv75ot" class="animable"></rect><rect x="242.34" y="206.55" width="2.61" height="2.26" style="fill: rgb(38, 50, 56); transform-origin: 243.645px 207.68px;" id="elttzn8eqwvwi" class="animable"></rect><rect x="242.34" y="210.88" width="2.61" height="2.26" style="fill: rgb(38, 50, 56); transform-origin: 243.645px 212.01px;" id="elhi7mx1xz1qu" class="animable"></rect><rect x="242.34" y="215.21" width="2.61" height="2.26" style="fill: rgb(38, 50, 56); transform-origin: 243.645px 216.34px;" id="eledk2af5ld6r" class="animable"></rect><rect x="242.34" y="219.54" width="2.61" height="2.26" style="fill: rgb(38, 50, 56); transform-origin: 243.645px 220.67px;" id="eldjzdsksy28c" class="animable"></rect><rect x="242.34" y="223.88" width="2.61" height="2.26" style="fill: rgb(38, 50, 56); transform-origin: 243.645px 225.01px;" id="elp09mhmpmls" class="animable"></rect><rect x="242.34" y="228.21" width="2.61" height="2.26" style="fill: rgb(38, 50, 56); transform-origin: 243.645px 229.34px;" id="elpii7vv9795h" class="animable"></rect><rect x="242.34" y="232.54" width="2.61" height="2.26" style="fill: rgb(38, 50, 56); transform-origin: 243.645px 233.67px;" id="elp5fgfmtqdcb" class="animable"></rect><rect x="242.34" y="236.87" width="2.61" height="2.26" style="fill: rgb(38, 50, 56); transform-origin: 243.645px 238px;" id="elhf638xkjyj" class="animable"></rect><rect x="242.34" y="241.2" width="2.61" height="2.26" style="fill: rgb(38, 50, 56); transform-origin: 243.645px 242.33px;" id="elmncx44kzrtp" class="animable"></rect><rect x="242.34" y="245.54" width="2.61" height="2.26" style="fill: rgb(38, 50, 56); transform-origin: 243.645px 246.67px;" id="elsa4dfkpn58e" class="animable"></rect><rect x="242.34" y="249.87" width="2.61" height="2.26" style="fill: rgb(38, 50, 56); transform-origin: 243.645px 251px;" id="ell5evs0swas" class="animable"></rect><rect x="242.34" y="254.2" width="2.61" height="2.26" style="fill: rgb(38, 50, 56); transform-origin: 243.645px 255.33px;" id="el2vc7412ogq6" class="animable"></rect><rect x="242.34" y="258.53" width="2.61" height="2.26" style="fill: rgb(38, 50, 56); transform-origin: 243.645px 259.66px;" id="elcejt3sxfnm4" class="animable"></rect><rect x="242.34" y="262.86" width="2.61" height="2.26" style="fill: rgb(38, 50, 56); transform-origin: 243.645px 263.99px;" id="elqju7rjzvam" class="animable"></rect><rect x="242.34" y="267.19" width="2.61" height="2.26" style="fill: rgb(38, 50, 56); transform-origin: 243.645px 268.32px;" id="el425y8x7unyr" class="animable"></rect><rect x="242.34" y="271.53" width="2.61" height="2.26" style="fill: rgb(38, 50, 56); transform-origin: 243.645px 272.66px;" id="elmlrmi9lcx2i" class="animable"></rect><rect x="242.34" y="275.86" width="2.61" height="2.26" style="fill: rgb(38, 50, 56); transform-origin: 243.645px 276.99px;" id="elms70ixhj8cr" class="animable"></rect><rect x="242.34" y="280.19" width="2.61" height="2.26" style="fill: rgb(38, 50, 56); transform-origin: 243.645px 281.32px;" id="elp1xfwvdw6dm" class="animable"></rect><rect x="258.21" y="167.56" width="2.61" height="2.26" style="fill: rgb(38, 50, 56); transform-origin: 259.515px 168.69px;" id="elpi5607fbqz8" class="animable"></rect><rect x="258.21" y="171.89" width="2.61" height="2.26" style="fill: rgb(38, 50, 56); transform-origin: 259.515px 173.02px;" id="el8sqyg1y4rj9" class="animable"></rect><rect x="258.21" y="176.22" width="2.61" height="2.26" style="fill: rgb(38, 50, 56); transform-origin: 259.515px 177.35px;" id="el8hb3tkmxvts" class="animable"></rect><rect x="258.21" y="180.56" width="2.61" height="2.26" style="fill: rgb(38, 50, 56); transform-origin: 259.515px 181.69px;" id="elfrluz6jambu" class="animable"></rect><rect x="258.21" y="184.89" width="2.61" height="2.26" style="fill: rgb(38, 50, 56); transform-origin: 259.515px 186.02px;" id="ellva75v7qoi" class="animable"></rect><rect x="258.21" y="189.22" width="2.61" height="2.26" style="fill: rgb(38, 50, 56); transform-origin: 259.515px 190.35px;" id="elin6v6o53n7h" class="animable"></rect><rect x="258.21" y="193.55" width="2.61" height="2.26" style="fill: rgb(38, 50, 56); transform-origin: 259.515px 194.68px;" id="ele4e78bi971" class="animable"></rect><rect x="258.21" y="197.88" width="2.61" height="2.26" style="fill: rgb(38, 50, 56); transform-origin: 259.515px 199.01px;" id="elbyjohfu4od" class="animable"></rect><rect x="258.21" y="202.22" width="2.61" height="2.26" style="fill: rgb(38, 50, 56); transform-origin: 259.515px 203.35px;" id="el6ius49kiu7" class="animable"></rect><rect x="258.21" y="206.55" width="2.61" height="2.26" style="fill: rgb(38, 50, 56); transform-origin: 259.515px 207.68px;" id="el6hanhcoyvvr" class="animable"></rect><rect x="258.21" y="210.88" width="2.61" height="2.26" style="fill: rgb(38, 50, 56); transform-origin: 259.515px 212.01px;" id="eliay0i09d8q" class="animable"></rect><rect x="258.21" y="215.21" width="2.61" height="2.26" style="fill: rgb(38, 50, 56); transform-origin: 259.515px 216.34px;" id="eluubnonzp42" class="animable"></rect><rect x="258.21" y="219.54" width="2.61" height="2.26" style="fill: rgb(38, 50, 56); transform-origin: 259.515px 220.67px;" id="el93ytthyqnan" class="animable"></rect><rect x="258.21" y="223.88" width="2.61" height="2.26" style="fill: rgb(38, 50, 56); transform-origin: 259.515px 225.01px;" id="el3s7wf0ejds6" class="animable"></rect><rect x="258.21" y="228.21" width="2.61" height="2.26" style="fill: rgb(38, 50, 56); transform-origin: 259.515px 229.34px;" id="elcsotlqjqdul" class="animable"></rect><rect x="258.21" y="232.54" width="2.61" height="2.26" style="fill: rgb(38, 50, 56); transform-origin: 259.515px 233.67px;" id="ela9lw9uv9u1q" class="animable"></rect><rect x="258.21" y="236.87" width="2.61" height="2.26" style="fill: rgb(38, 50, 56); transform-origin: 259.515px 238px;" id="elefvnm35y8bs" class="animable"></rect><rect x="258.21" y="241.2" width="2.61" height="2.26" style="fill: rgb(38, 50, 56); transform-origin: 259.515px 242.33px;" id="elw56ruq5531" class="animable"></rect><rect x="258.21" y="245.54" width="2.61" height="2.26" style="fill: rgb(38, 50, 56); transform-origin: 259.515px 246.67px;" id="elodv9fwxti5l" class="animable"></rect><rect x="258.21" y="249.87" width="2.61" height="2.26" style="fill: rgb(38, 50, 56); transform-origin: 259.515px 251px;" id="elpgtfjafk4jg" class="animable"></rect><rect x="258.21" y="254.2" width="2.61" height="2.26" style="fill: rgb(38, 50, 56); transform-origin: 259.515px 255.33px;" id="eljr6pvl12mq" class="animable"></rect><rect x="258.21" y="258.53" width="2.61" height="2.26" style="fill: rgb(38, 50, 56); transform-origin: 259.515px 259.66px;" id="el5j4bvsurinb" class="animable"></rect><rect x="258.21" y="262.86" width="2.61" height="2.26" style="fill: rgb(38, 50, 56); transform-origin: 259.515px 263.99px;" id="elaw9jkc7750o" class="animable"></rect><rect x="258.21" y="267.19" width="2.61" height="2.26" style="fill: rgb(38, 50, 56); transform-origin: 259.515px 268.32px;" id="el6z19f02xvuk" class="animable"></rect><rect x="258.21" y="271.53" width="2.61" height="2.26" style="fill: rgb(38, 50, 56); transform-origin: 259.515px 272.66px;" id="el55qkyuom01e" class="animable"></rect><rect x="258.21" y="275.86" width="2.61" height="2.26" style="fill: rgb(38, 50, 56); transform-origin: 259.515px 276.99px;" id="elgpxoy0e81xh" class="animable"></rect><rect x="258.21" y="280.19" width="2.61" height="2.26" style="fill: rgb(38, 50, 56); transform-origin: 259.515px 281.32px;" id="el31wswzrj7un" class="animable"></rect><path d="M241.05,239.13a1.66,1.66,0,0,1-.45.05l-1.29,0-4.88.08-17.09.11.11,0-14.68,6.19c-13.52,5.68-25.35,10.58-31.57,13.09l.09-.14c0,1.71,0,3.06-.07,4.05,0,.43,0,.77,0,1.06a1.22,1.22,0,0,1,0,.35s0-.12,0-.35,0-.63,0-1.06c0-1,0-2.34-.07-4.05v-.1l.1,0c6.15-2.68,17.93-7.7,31.45-13.37l14.7-6.15.06,0h.05l17.09.11,4.88.08,1.29.05A2,2,0,0,1,241.05,239.13Z" style="fill: rgb(38, 50, 56); transform-origin: 206.1px 251.43px;" id="eldicdwlhoy1" class="animable"></path><path d="M217.54,252.25c-.17,0-.31-2.91-.31-6.5s.14-6.51.31-6.51.31,2.92.31,6.51S217.71,252.25,217.54,252.25Z" style="fill: rgb(38, 50, 56); transform-origin: 217.54px 245.745px;" id="eluqncwcfm0qk" class="animable"></path><path d="M234,252.25c-.17,0-.3-2.91-.3-6.5s.13-6.51.3-6.51.31,2.92.31,6.51S234.21,252.25,234,252.25Z" style="fill: rgb(38, 50, 56); transform-origin: 234.005px 245.745px;" id="elc5c6myq27bg" class="animable"></path><polygon points="147.98 270.64 156.04 260.79 241.05 220.67 241.05 209.38 152.83 257.42 147.98 270.64" style="fill: rgb(241, 62, 81); transform-origin: 194.515px 240.01px;" id="elwr62wi4dew" class="animable"></polygon><path d="M249.18,294.23l1.25,66.84h3.28l1.18-66.9a4,4,0,0,0-1.29-3.09,2.17,2.17,0,0,0-3.16.07A4,4,0,0,0,249.18,294.23Z" style="fill: rgb(241, 62, 81); transform-origin: 252.035px 325.751px;" id="el34nwm6i2yy5" class="animable"></path><path d="M250.38,358.6a2.74,2.74,0,0,1-.06-.65c0-.49,0-1.1-.07-1.84,0-1.69-.1-4-.17-6.8-.16-5.81-.37-13.7-.6-22.41s-.38-16.68-.41-22.42c0-2.87,0-5.2,0-6.8,0-.75,0-1.36,0-1.85a2.46,2.46,0,0,1,.05-.64,1.92,1.92,0,0,1,.07.64c0,.49,0,1.1.06,1.85.05,1.69.11,4,.18,6.79.15,5.82.36,13.7.6,22.42s.38,16.68.41,22.42c0,2.87,0,5.19,0,6.8,0,.74,0,1.35-.05,1.84A2.74,2.74,0,0,1,250.38,358.6Z" style="fill: rgb(38, 50, 56); transform-origin: 249.753px 326.895px;" id="elgwy5f824sc" class="animable"></path><path d="M254.89,296c-.58,14.31-1,56.44-1,56.44" style="fill: rgb(241, 62, 81); transform-origin: 254.39px 324.22px;" id="elccgnbtqq8hf" class="animable"></path><path d="M253.86,352.47a1.92,1.92,0,0,1-.05-.57c0-.45,0-1,0-1.64,0-1.53,0-3.57,0-6.05,0-5.11.13-12.17.27-20s.3-14.85.45-20c.09-2.48.16-4.52.21-6,0-.66.06-1.2.08-1.65a2.06,2.06,0,0,1,.08-.57,2.65,2.65,0,0,1,.05.58c0,.45,0,1,0,1.64,0,1.53,0,3.57,0,6.06,0,5.1-.13,12.16-.27,19.95s-.3,14.85-.45,19.95c-.09,2.48-.16,4.52-.21,6.05,0,.65-.06,1.2-.09,1.64A1.74,1.74,0,0,1,253.86,352.47Z" style="fill: rgb(38, 50, 56); transform-origin: 254.379px 324.23px;" id="elvbpozzkeq6" class="animable"></path></g><defs>     <filter id="active" height="200%">         <feMorphology in="SourceAlpha" result="DILATED" operator="dilate" radius="2"></feMorphology>                <feFlood flood-color="#32DFEC" flood-opacity="1" result="PINK"></feFlood>        <feComposite in="PINK" in2="DILATED" operator="in" result="OUTLINE"></feComposite>        <feMerge>            <feMergeNode in="OUTLINE"></feMergeNode>            <feMergeNode in="SourceGraphic"></feMergeNode>        </feMerge>    </filter>    <filter id="hover" height="200%">        <feMorphology in="SourceAlpha" result="DILATED" operator="dilate" radius="2"></feMorphology>                <feFlood flood-color="#ff0000" flood-opacity="0.5" result="PINK"></feFlood>        <feComposite in="PINK" in2="DILATED" operator="in" result="OUTLINE"></feComposite>        <feMerge>            <feMergeNode in="OUTLINE"></feMergeNode>            <feMergeNode in="SourceGraphic"></feMergeNode>        </feMerge>            <feColorMatrix type="matrix" values="0   0   0   0   0                0   1   0   0   0                0   0   0   0   0                0   0   0   1   0 "></feColorMatrix>    </filter></defs></svg>